<svg xmlns="http://www.w3.org/2000/svg" viewBox="0 0 512 512" width="100%" height="100%">
  <defs>
    <linearGradient id="bgGrad" x1="0%" y1="0%" x2="100%" y2="100%">
      <stop offset="0%" stop-color="#111318" />
      <stop offset="100%" stop-color="#0B0C0E" />
    </linearGradient>

    <linearGradient id="sessionGrad" x1="0%" y1="0%" x2="100%" y2="100%">
      <stop offset="0%" stop-color="#6366F1" />
      <stop offset="100%" stop-color="#4F46E5" />
    </linearGradient>

    <filter id="microShadow" x="-20%" y="-20%" width="140%" height="140%">
      <feDropShadow dx="0" dy="6" stdDeviation="4" flood-color="#000000" flood-opacity="0.5" />
    </filter>
  </defs>

  <polygon points="256,32 450,144 450,368 256,480 62,368 62,144" fill="url(#bgGrad)" stroke="#232631" stroke-width="10" filter="url(#microShadow)" />

  <rect x="110" y="150" width="180" height="32" rx="8" fill="url(#sessionGrad)" opacity="0.3" />
  <rect x="310" y="150" width="90" height="32" rx="8" fill="url(#sessionGrad)" opacity="0.7" />
  
  <rect x="110" y="215" width="130" height="32" rx="8" fill="url(#sessionGrad)" opacity="0.8" />
  <rect x="260" y="215" width="140" height="32" rx="8" fill="url(#sessionGrad)" opacity="0.2" />

  <rect x="110" y="280" width="160" height="32" rx="8" fill="url(#sessionGrad)" opacity="0.5" />

  <path d="M 215,175 
           C 215,160 230,150 245,158 
           L 380,238 
           C 395,246 395,266 380,274 
           L 245,354 
           C 230,362 215,352 215,337 
           Z" 
        fill="none" 
        stroke="#7FE3A2" 
        stroke-width="36" 
        stroke-linejoin="round" 
        stroke-linecap="round"
        filter="url(#microShadow)" />
</svg>
